<?xml version="1.0" encoding="UTF-8"?>
<svg width="38.256mm" height="40.889mm" version="1.1" viewBox="0 0 38.256 40.889" xmlns="http://www.w3.org/2000/svg"><g transform="translate(-90.612 -137.11)"><g fill="#a00" stroke-width=".17678"><path transform="scale(.26458)" d="m401.37 671.55c-8.7045-0.86436-15.767-3.3671-22.893-8.1125-16.996-11.319-30.011-34.227-33.839-59.563-0.79093-5.2342-0.97586-7.9054-0.97294-14.054 4e-3 -7.8638 0.48443-12.081 2.1055-18.473 1.0124-3.992 2.1023-6.9688 3.8834-10.607 5.1703-10.56 12.962-17.271 23.785-20.486 4.2506-1.2626 8.7128-1.772 14.407-1.6446 6.577 0.14708 10.824 0.84115 18.031 2.9465 8.894 2.5982 10.287 2.9006 13.347 2.8968 3.1319-4e-3 3.7643-0.14075 12.556-2.718 6.6416-1.947 10.491-2.6712 15.948-3.0003 13.602-0.82019 24.08 3.8646 30.635 13.697 3.413 5.1195 5.777 11.783 6.8671 19.357 0.90927 6.3173 0.91238 14.816 8e-3 22.185-3.0796 25.097-14.802 50.673-29.831 65.085-16.459 15.784-34.028 16.653-50.61 2.5039l-1.6102-1.374-0.78639 0.83707 0.83235 0.76848c2.9117 2.6883 7.164 5.6234 10.522 7.2631 1.2468 0.60873 2.2713 1.1574 2.2767 1.2192 0.0156 0.17789-3.8252 0.84595-6.4885 1.1286-2.1737 0.23069-6.5267 0.30713-8.1741 0.14354z"/><path transform="scale(.26458)" d="m400.4 671.36c-6.3806-0.828-11.416-2.3333-16.56-4.9509-5.2916-2.6924-9.3169-5.6626-14.169-10.455-12.473-12.32-21.442-30.814-24.765-51.07-0.94064-5.733-1.0618-7.4329-1.0614-14.896 4.4e-4 -9.0505 0.31358-11.853 2.1052-18.838 2.2113-8.6213 6.3708-16.282 11.753-21.645 2.8609-2.8508 5.6688-4.816 9.6005-6.7192 6.0838-2.945 11.329-4.0633 19.058-4.0633 7.7729 0 11.154 0.56173 22.225 3.693 2.6923 0.76142 5.4411 1.4914 6.1084 1.6222l1.2133 0.23776-0.1168 0.98005c-0.34932 2.9311-0.63297 5.9811-0.83035 8.9287l-0.22158 3.3089-0.98249-0.11613c-1.3086-0.15468-4.6156-0.89121-6.3239-1.4084-3.0721-0.93017-7.5143-2.756-9.7208-3.9953l-0.92013-0.51682-0.27311 0.38992c-0.15021 0.21445-0.27311 0.47945-0.27311 0.58887 0 0.276 4.7474 2.5091 7.6149 3.5819 4.9266 1.8432 9.0432 2.6722 13.955 2.8103 6.6148 0.18595 12.176-1.0485 18.519-4.1106 2.5222-1.2177 5.6963-3.0016 5.6963-3.2015 0-0.0894-0.35416-0.80543-0.45821-0.92637-0.0312-0.0363-0.80374 0.37975-1.7167 0.92454-2.1343 1.2736-5.9187 3.0917-8.1377 3.9095-3.3503 1.2348-7.1265 2.0042-11.281 2.2986l-1.5293 0.10837-0.13097-1.9082c-0.1613-2.35 8e-3 -6.7348 0.35978-9.3328 0.14493-1.0695 0.26416-1.953 0.26497-1.9633 8.8e-4 -0.0103 0.65739-0.0735 1.4591-0.14034 1.9606-0.16351 3.1036-0.43048 8.7954-2.0544 9.9373-2.8351 13.134-3.4352 19.445-3.6506 11.116-0.37942 20.256 3.1495 26.486 10.226 7.3522 8.3515 10.954 21.758 10.13 37.7-0.24688 4.7708-0.52068 7.3494-1.2681 11.943-3.2865 20.197-12.155 40.532-23.824 54.624-2.2126 2.6721-6.7005 7.1342-9.1366 9.0842-5.4438 4.3573-11 7.1945-16.44 8.395-10.128 2.235-20.142-0.84978-30.17-9.2944-0.84296-0.7098-1.6047-1.2905-1.6928-1.2905-0.0881 0-0.33774 0.18908-0.55484 0.42017l-0.39473 0.42017 1.292 1.1608c2.5829 2.3206 6.2203 4.8583 9.4359 6.5832 1.5198 0.81524 1.844 1.0606 1.844 1.3958 0 0.44922-0.27827 0.51216-4.7662 1.0781-1.8506 0.23335-8.1951 0.32134-9.641 0.1337z"/><path transform="scale(.26458)" d="m385.8 538.63c-6.5051-0.0864-13.038 1.256-18.864 4.1895-7.4025 3.5322-13.191 9.8611-16.833 17.137-3.2172 6.1042-4.9987 12.877-5.9422 19.683-0.70155 7.7358-0.73832 15.573 0.33284 23.278 2.5696 17.476 9.3163 34.579 20.624 48.265 7.5326 9.0966 17.588 16.519 29.234 19.21 5.6844 1.3904 11.648 1.5029 17.429 0.7102 1.2821-0.23251 2.629-0.30592 3.8587-0.73402-0.16559-0.60721-1.1444-0.77281-1.6145-1.1642-4.208-2.2202-8.1751-4.9325-11.641-8.2036 0.3432-0.40348 0.84544-1.0663 1.3054-0.36978 5.9491 5.1058 12.914 9.5032 20.812 10.625 8.1648 1.2784 16.483-1.4266 23.205-6.0092 10.964-7.423 18.858-18.519 24.857-30.15 6.6991-13.224 11.136-27.634 12.807-42.372 0.9367-9.0619 0.8385-18.356-1.4078-27.227-2.152-8.5496-6.7547-16.882-14.32-21.744-5.7884-3.7718-12.824-5.2808-19.675-5.0316-6.4192-0.14525-12.699 1.4032-18.815 3.1891-3.8799 1.0474-7.7325 2.4165-11.77 2.6193-0.80858 4.3395-0.92871 8.8833-0.57384 13.31 2.6615 0.0584 5.4563-0.38486 8.1166-0.92505 5.2358-1.0554 10.015-3.6224 14.611-6.2013 0.25562 0.38666 0.6129 0.90304-0.0194 1.0848-6.5888 4.0135-14.061 6.9789-21.868 6.9465-7.0653 0.19877-14.024-1.7215-20.355-4.778-0.96414-0.52142-2.1659-0.88592-2.9308-1.606 0.18679-0.525 0.55289-1.0392 1.0757-0.42363 5.3842 2.8306 11.228 4.9344 17.289 5.6582 0.39181-2.2081 0.33658-4.6402 0.60655-6.9288 0.11527-2.1329 0.55012-4.2652 0.586-6.3895-0.53025-0.38355-1.383-0.24093-2.0057-0.52377-8.1176-2.0535-16.147-5.0484-24.626-5.0865-1.1629-0.034-2.3264-0.0429-3.4898-0.038z"/><path transform="scale(.26458)" d="m386.64 538.48c-5.2813 2e-3 -10.659 0.39534-15.618 2.3577-7.9712 2.784-14.811 8.4514-19.203 15.643-5.5444 8.9396-8.198 19.512-8.2527 29.99-0.18352 8.1924 0.20584 16.454 2.1524 24.444 3.4271 14.783 9.6641 29.141 19.564 40.763 7.7474 9.2169 18.12 16.682 30.052 19.182 4.9353 1.1846 10.047 0.82739 15.068 0.62654 1.7494-0.19358 3.6406-0.24385 5.2205-1.0784 0.22663-0.54006-0.79386-0.78517-1.062-1.1339-3.5219-2.4149-7.3861-4.4284-10.49-7.3963-0.30409-0.46594 1.0497 0.61382 1.3929 0.77633 4.5007 2.9842 9.0007 6.1558 14.235 7.726 4.0893 1.4631 8.5082 1.1591 12.772 1.0487 4.153-0.21248 8.0142-2.0337 11.692-3.8316 9.2646-4.9373 16.42-13.023 22.238-21.612 10.311-15.563 16.674-33.628 19.067-52.109 0.60003-5.4822 0.45163-11.019 0.42467-16.525-0.37646-9.469-2.9376-19.133-8.6792-26.802-4.9366-6.5242-12.681-10.832-20.796-11.73-5.9441-0.24016-11.995-0.51142-17.818 0.95708-6.366 1.477-12.686 3.1618-19.046 4.6494-0.58947 0.68175-0.38915 1.8085-0.59179 2.6544-0.32128 3.575-0.49329 7.1803-0.15641 10.761 2.6615 0.0584 5.4563-0.38486 8.1166-0.92505 5.2358-1.0554 10.015-3.6224 14.611-6.2013 0.25562 0.38666 0.6129 0.90304-0.0194 1.0848-6.5888 4.0135-14.061 6.9789-21.868 6.9465-7.0653 0.19877-14.024-1.7215-20.355-4.778-0.96414-0.52142-2.1659-0.88592-2.9308-1.606 0.18679-0.525 0.55289-1.0392 1.0757-0.42363 5.3842 2.8306 11.228 4.9344 17.289 5.6582 0.39218-2.2079 0.33577-4.6398 0.60655-6.9281 0.13552-2.0811 0.4854-4.1615 0.61362-6.2328-0.63486-0.89329-1.9906-0.83341-2.932-1.2371-8.6196-2.3452-17.332-5.0404-26.372-4.7181z"/><path transform="scale(.26458)" d="m450.24 538.66c-6.3863-0.0642-12.654 1.3546-18.751 3.131-3.9987 1.0758-7.9692 2.4119-12.115 2.7378-0.79619 4.3464-0.92596 8.8823-0.56797 13.31 2.6615 0.0584 5.4563-0.38486 8.1166-0.92505 5.2358-1.0554 10.015-3.6224 14.611-6.2013 0.25562 0.38666 0.6129 0.90304-0.0194 1.0848-6.5888 4.0135-14.061 6.9789-21.868 6.9465-7.0653 0.19877-14.024-1.7215-20.355-4.778-0.96414-0.52142-2.1659-0.88592-2.9308-1.606 0.18679-0.525 0.55289-1.0392 1.0757-0.42363 5.3842 2.8306 11.228 4.9344 17.289 5.6582 0.39201-2.2074 0.33601-4.6388 0.60626-6.9267 0.12706-2.175 0.55742-4.4133 0.59768-6.537-7.8238-1.5995-15.366-4.7354-23.396-5.2836-4.4766-0.14398-8.9888-0.34166-13.448 0.15636-8.8255 1.3076-17.365 5.4428-23.219 12.278-7.2252 8.4351-10.896 19.441-11.939 30.379-0.40715 7.8312-0.48479 15.738 0.88588 23.488 2.6173 15.623 8.6524 30.809 18.224 43.489 7.1673 9.4464 16.779 17.434 28.258 20.923 4.4704 1.4079 9.1509 2.1831 13.845 1.9658 3.4826-0.0977 7.0547-0.13443 10.412-1.1408 0.0253-0.57073-0.92559-0.7451-1.2952-1.0873-4.1111-2.307-8.2207-4.773-11.558-8.1376-0.43987-0.61058 0.71436-1.0462 1.0275-0.43089 5.4896 4.6865 11.801 8.7093 18.948 10.223 3.26 0.7519 6.6558 0.59285 9.9683 0.37097 9.7608-1.4651 18.223-7.4026 24.891-14.42 9.2342-9.8484 15.87-21.891 20.644-34.455 3.9705-10.693 6.6605-21.913 7.5233-33.299 0.27626-6.9212 0.42575-13.931-1.0546-20.741-1.6557-8.6198-5.5472-17.146-12.449-22.806-6.0878-5.0431-14.157-7.1222-21.957-6.9418z"/><path transform="scale(.26458)" d="m385.68 538.64c-9.425-0.25401-18.953 2.9373-26.195 8.9984-7.7865 6.7618-12.288 16.567-14.441 26.498-1.628 7.7234-1.5854 15.691-1.1667 23.537 1.2727 14.611 5.7196 28.964 12.984 41.709 6.781 11.775 16.387 22.459 28.945 28.134 5.8126 2.5827 12.146 4.243 18.544 4.0106 3.7649-0.0702 7.6474 4e-3 11.269-1.1484 0.14854-0.50865-0.87661-0.69201-1.167-1.0134-4.0874-2.2986-8.2873-4.7305-11.52-8.13-0.46017-0.34023-5e-3 -0.98924 0.45472-0.58696 2.6955 1.9131 5.1992 4.1275 8.0948 5.7649 6.7996 4.1759 15.113 6.3194 23.022 4.5928 8.7806-1.7676 16.329-7.1899 22.452-13.524 10.032-10.277 16.877-23.233 21.821-36.61 4.0658-11.35 6.7264-23.289 7.1115-35.364 0.28007-9.1634-0.57729-18.563-4.2846-27.045-2.9192-6.9162-8.0179-13.075-14.846-16.388-4.9477-2.4576-10.527-3.5699-16.04-3.3402-5.2305-0.13412-10.447 0.59061-15.477 2.0138-5.273 1.33-10.46 3.156-15.875 3.7856-0.78148 4.3542-0.92277 8.8815-0.56106 13.311 2.6615 0.0584 5.4563-0.38486 8.1166-0.92505 5.2358-1.0554 10.015-3.6224 14.611-6.2013 0.25562 0.38666 0.6129 0.90304-0.0194 1.0848-6.5888 4.0135-14.061 6.9789-21.868 6.9465-7.0653 0.19877-14.024-1.7215-20.355-4.778-0.96414-0.52142-2.1659-0.88592-2.9308-1.606 0.18679-0.525 0.55289-1.0392 1.0757-0.42363 5.4043 2.8412 11.272 4.9502 17.357 5.6669 0.22585-1.8848 0.23226-3.9794 0.45567-5.943 0.13915-2.4788 0.59481-4.9511 0.66266-7.4265-3.2495-0.99016-6.6137-1.7236-9.8844-2.6964-5.9246-1.6678-12.006-3.0652-18.202-2.9001-0.71457-8e-3 -1.4292-7e-3 -2.1438-3e-3z"/><path transform="scale(.26458)" d="m385.03 538.63c-7.3927-0.15457-14.763 2.0018-21.1 5.761-9.0124 5.5451-14.861 15.094-17.715 25.106-1.5765 5.2802-2.4545 10.76-2.4695 16.275-0.24859 7.3152-0.0388 14.687 1.4763 21.871 3.1531 16.397 10.039 32.299 21.011 44.991 4.4228 4.8487 9.3251 9.343 15.07 12.582 7.055 4.0742 15.16 6.6049 23.36 6.3421 3.6979-0.0316 7.4879-0.10794 11.051-1.1744 0.19517-0.47971-0.84364-0.63658-1.1018-0.9519-4.0496-2.4069-8.3474-4.6763-11.548-8.2091-0.29532-0.17191-0.34996-0.76172 0.0949-0.56245 3.844 2.5368 7.3426 5.6625 11.591 7.5617 6.3315 3.2384 13.79 4.1727 20.723 2.61 9.8449-2.3593 18.005-9.0497 24.496-16.563 10.694-12.554 17.721-27.885 22.072-43.7 1.9319-7.3013 3.3412-14.781 3.7483-22.331 0.1052-6.4017 0.38035-12.883-0.96398-19.188-1.7022-9.0128-5.6597-18.088-13.061-23.845-5.6158-4.4097-12.781-6.5579-19.88-6.5391-5.5421-0.14802-11.09 0.50401-16.432 1.9928-5.3631 1.3334-10.634 3.1308-16.114 3.8792-0.71454 4.3801-0.90722 8.8717-0.52895 13.302 2.6615 0.0584 5.4563-0.38486 8.1166-0.92505 5.2358-1.0554 10.015-3.6224 14.611-6.2013 0.25562 0.38666 0.6129 0.90304-0.0194 1.0848-6.5888 4.0135-14.061 6.9789-21.868 6.9465-7.0653 0.19877-14.024-1.7215-20.355-4.778-0.96414-0.52142-2.1659-0.88592-2.9308-1.606 0.18679-0.525 0.55289-1.0392 1.0757-0.42363 5.4043 2.8412 11.272 4.9502 17.357 5.6669 0.22585-1.8848 0.23226-3.9794 0.45567-5.943 0.13547-2.4807 0.60366-4.956 0.65713-7.433-4.1772-1.2943-8.4805-2.2788-12.698-3.4797-5.0702-1.3648-10.293-2.2173-15.556-2.114-0.87511-0.0108-1.7503-0.0111-2.6254-5e-3z"/><path transform="scale(.26458)" d="m387.72 538.65c-4.4663 0.0623-9.0156-0.0732-13.335 1.2633-6.5813 1.7971-12.873 5.1282-17.492 10.225-6.957 7.2102-10.697 16.95-12.408 26.686-1.0536 5.5926-0.69085 11.315-0.73907 16.973-0.0769 7.0849 1.318 14.089 3.041 20.93 4.0943 15.423 11.536 30.249 22.915 41.589 7.9417 7.9739 18.378 13.722 29.632 15.078 4.4712 0.2063 8.9858 0.25544 13.433-0.29728 0.97709-0.26834 2.1903-0.19581 3.0171-0.80686-0.59525-0.74424-1.6988-1.1072-2.4919-1.6756-3.588-2.1535-7.3481-4.2507-10.181-7.3842-0.31173-0.20904-0.3067-0.88272 0.13741-0.46093 4.8892 3.4436 9.6877 7.2708 15.462 9.1319 3.2345 1.2388 6.697 1.7097 10.149 1.5896 3.404 0.18945 6.7854-0.45638 9.9702-1.6395 10.21-3.6436 18.285-11.477 24.701-19.982 10.043-13.548 16.602-29.492 20.12-45.93 2.1976-10.047 2.8408-20.444 1.8288-30.68-1.0366-9.3394-4.2486-18.863-10.997-25.645-5.9257-6.0374-14.465-9.0974-22.855-8.9564-5.2088-0.0846-10.436 0.3986-15.467 1.7964-5.5741 1.3762-11.064 3.1766-16.733 4.0671-0.71389 2.9358-0.73624 6.056-0.81108 9.0836 0.0352 1.4338-0.0213 2.981 0.29836 4.3296 5.9737-0.25964 11.944-1.5647 17.265-4.3549 1.8452-0.83653 3.5723-1.95 5.3554-2.8643 0.25562 0.38666 0.6129 0.90304-0.0194 1.0848-6.5888 4.0135-14.061 6.9789-21.868 6.9465-7.0653 0.19877-14.024-1.7215-20.355-4.778-0.96414-0.52142-2.1659-0.88592-2.9308-1.606 0.18679-0.525 0.55289-1.0392 1.0757-0.42363 5.4043 2.8412 11.272 4.9502 17.357 5.6669 0.22585-1.8848 0.23226-3.9794 0.45567-5.943 0.13495-2.4812 0.60533-4.9563 0.65506-7.4344-5.1418-1.5733-10.392-2.9039-15.622-4.2032-4.1066-1.0392-8.3292-1.484-12.562-1.3753z"/><path transform="scale(.26458)" d="m385.58 538.53c-6.5254-0.0543-13.108 1.2377-18.912 4.2907-9.3295 4.4516-15.791 13.369-19.285 22.889-2.2794 6.2593-3.6788 12.886-3.6437 19.567-0.16964 6.9658-0.2408 13.991 1.1131 20.859 3.0548 17.024 10.042 33.606 21.499 46.696 6.826 7.8142 15.587 14.148 25.618 17.08 4.7807 1.5018 9.8246 1.8993 14.81 1.6457 2.9779-0.14115 6.0973-0.0619 8.9147-1.1449 0.28718-0.47357-0.73317-0.65711-0.95363-0.96088-4.0171-2.621-8.5059-4.785-11.666-8.4922 0.1305-0.1582 0.72131 0.39952 0.955 0.49373 4.3117 2.99 8.5573 6.2234 13.529 8.0666 3.2356 1.3187 6.6997 2.1515 10.212 1.9677 3.5652 0.0913 7.2091-0.0562 10.558-1.4146 10.421-3.5713 18.701-11.474 25.198-20.132 10.544-14.266 17.307-31.131 20.664-48.494 1.895-9.6604 2.296-19.619 1.1941-29.4-1.3067-9.3949-4.7737-18.99-11.942-25.507-5.8094-5.3156-13.743-8.0393-21.576-7.9062-4.9968-0.15008-10.015 0.27672-14.854 1.572-5.8338 1.3956-11.596 3.2143-17.507 4.2009-0.57922 0.99059-0.42707 2.2973-0.61633 3.4152-0.2602 3.3309-0.40466 6.6849-0.0863 10.017 2.6615 0.0584 5.4563-0.38486 8.1166-0.92505 5.2358-1.0554 10.015-3.6224 14.611-6.2013 0.25562 0.38666 0.6129 0.90304-0.0194 1.0848-6.5888 4.0135-14.061 6.9789-21.868 6.9465-7.0653 0.19877-14.024-1.7215-20.355-4.778-0.96414-0.52142-2.1659-0.88592-2.9308-1.606 0.18679-0.525 0.55289-1.0392 1.0757-0.42363 5.3839 2.8305 11.228 4.934 17.288 5.6582 0.38583-2.1514 0.3311-4.5204 0.59692-6.7545 0.11533-2.2535 0.6378-4.5633 0.48239-6.7858-7.101-1.8262-14.111-4.1897-21.407-5.1238-2.9261-0.30924-5.8747-0.39992-8.8157-0.40047z"/><path transform="scale(.26458)" d="m384.89 538.57c-9.1041-0.19324-18.236 3.0415-25.26 8.8192-7.7947 6.6898-12.411 16.415-14.624 26.303-1.733 7.4819-1.41 15.214-1.2814 22.834 0.58069 10.898 3.4336 21.594 7.5363 31.673 4.9506 11.947 12.202 23.147 22.105 31.576 8.7326 7.2855 19.876 12.188 31.386 11.931 3.5563-0.21451 7.223-0.0954 10.666-1.1197 0.53763-0.14171 0.29024-0.69219-0.14668-0.8002-4.0712-2.7593-8.6639-4.9064-11.959-8.6653 5.0276 3.1959 9.7804 7.0518 15.53 8.9203 4.9848 1.8764 10.459 1.7702 15.664 1.0924 4.9267-0.88466 9.4696-3.2498 13.634-5.949 6.2641-4.3824 11.571-10.035 16.117-16.153 10.242-14.221 16.793-30.916 20.061-48.079 0.99972-5.2748 1.6611-10.624 1.5617-16.002 0.0111-5.5056 0.17219-11.073-1.0622-16.478-1.7664-8.9256-5.832-17.83-13.191-23.492-4.383-3.3782-9.7362-5.4824-15.221-6.13-4.5971-0.17753-9.2271-0.26793-13.81 0.2049-5.9564 0.91096-11.699 2.8273-17.563 4.1714-1.8393 0.54319-3.8134 0.66616-5.6034 1.3053-0.68076 2.381-0.59501 4.9305-0.76684 7.3898-0.0321 1.9955-0.12993 4.1046 0.25688 6.0159 5.9737-0.25964 11.944-1.5647 17.265-4.3549 1.8452-0.83653 3.5723-1.95 5.3554-2.8643 0.25562 0.38666 0.6129 0.90304-0.0194 1.0848-6.5888 4.0135-14.061 6.9789-21.868 6.9465-7.0653 0.19877-14.024-1.7215-20.355-4.778-0.96414-0.52142-2.1659-0.88592-2.9308-1.606 0.18679-0.525 0.55289-1.0392 1.0757-0.42363 5.3839 2.8305 11.228 4.934 17.288 5.6582 0.38583-2.1514 0.3311-4.5204 0.59692-6.7545 0.11673-2.2597 0.63789-4.5745 0.48308-6.8041-7.044-1.8825-14.039-4.1014-21.272-5.1486-3.1994-0.39036-6.4319-0.32263-9.6484-0.32456z"/><path transform="scale(.26458)" d="m385.53 538.62c-4.6618-0.0621-9.3645 0.44768-13.757 2.0824-7.4912 2.4278-14.087 7.377-18.566 13.848-5.5797 7.9132-8.4354 17.502-9.339 27.072-0.39663 6.3406-0.2548 12.716 0.19928 19.05 2.2685 18.297 9.1795 36.242 20.915 50.571 5.4893 6.3816 11.92 12.148 19.589 15.77 5.9876 2.8759 12.579 4.7343 19.266 4.548 3.9368-9e-3 7.9964 0.0838 11.789-1.1092 0.51165-0.40316-0.62749-0.70135-0.83436-0.95498-4.0679-2.5897-8.6107-4.7685-11.749-8.525-0.20798-0.40494 0.58291 0.22088 0.75545 0.29003 4.4704 3.0547 8.8089 6.473 13.967 8.3263 3.3103 1.3112 6.8471 2.0913 10.421 1.9051 3.034 0.10246 6.1038-0.0522 8.9904-1.0808 7.9632-2.4101 14.848-7.4804 20.479-13.502 9.8077-10.44 16.632-23.36 21.469-36.755 3.4014-9.681 5.7171-19.776 6.5951-30.006 0.2257-5.763 0.35698-11.563-0.22986-17.308-1.225-9.4144-4.5078-19.045-11.497-25.762-4.8286-4.6667-11.312-7.495-17.957-8.229-6.122-0.23637-12.361-0.37526-18.339 1.1927-6.0446 1.4534-11.985 3.3976-18.121 4.4088-0.61892 0.92903-0.46939 2.221-0.67016 3.2987-0.2964 3.3548-0.4153 6.7364-0.0981 10.095 2.6615 0.0584 5.4563-0.38486 8.1166-0.92505 5.2358-1.0554 10.015-3.6224 14.611-6.2013 0.25562 0.38666 0.6129 0.90304-0.0194 1.0848-6.5888 4.0135-14.061 6.9789-21.868 6.9465-7.0653 0.19877-14.024-1.7215-20.355-4.778-0.96414-0.52142-2.1659-0.88592-2.9308-1.606 0.18679-0.525 0.55289-1.0392 1.0757-0.42363 5.4043 2.8412 11.272 4.9502 17.357 5.6669 0.22585-1.8848 0.23226-3.9794 0.45567-5.943 0.13965-2.4787 0.59379-4.9507 0.66335-7.4261-3.283-1.1695-6.7493-1.8963-10.11-2.8598-5.5192-1.5084-11.155-2.8643-16.917-2.7514-1.1187-0.0124-2.2376-0.0136-3.3563-9e-3z"/><path transform="scale(.26458)" d="m386.83 538.47c-5.2535-0.024-10.581 0.43614-15.533 2.3091-7.4733 2.5118-13.992 7.5761-18.395 14.102-5.2823 7.7073-8.1726 16.906-9.0682 26.16-0.38452 6.9336-0.39521 13.915 0.30302 20.828 1.6546 12.593 5.6732 24.884 11.723 36.049 6.0627 10.884 14.339 20.894 25.167 27.288 7.6434 4.4319 16.514 7.0349 25.395 6.45 3.0626-0.20818 7.9558 0.11238 10.839-1.09 0.45895-0.46261-2.3152-0.86703-2.5381-1.1591-3.7709-2.571-7.985-4.6406-11.139-8.0018 5.7052 3.5958 11.229 7.9156 17.94 9.4679 3.5331 1.2774 7.2378 1.2028 10.996 0.54552 4.0824-0.23977 7.8819-2.0395 11.511-3.789 7.6732-3.9833 13.81-10.351 19.092-17.085 9.2476-12.198 15.504-26.484 19.374-41.242 2.0039-7.8583 3.6731-15.86 3.6696-23.991 0.23546-7.2589-0.36159-14.687-2.5198-21.67-2.4049-8.3486-7.3838-16.297-15.045-20.721-4.7909-2.7901-10.325-4.3789-15.887-4.2309-4.6426-0.17978-9.336-0.10016-13.863 1.0659-6.3901 1.4608-12.702 3.2486-19.112 4.6135-0.76545 0.24595-0.48016 1.3811-0.69778 1.9887-0.39253 3.8099-0.58538 7.6598-0.23513 11.481 2.6615 0.0584 5.4563-0.38486 8.1166-0.92505 5.2358-1.0554 10.015-3.6224 14.611-6.2013 0.25562 0.38666 0.6129 0.90304-0.0194 1.0848-6.5888 4.0135-14.061 6.9789-21.868 6.9465-7.0653 0.19877-14.024-1.7215-20.355-4.778-0.96414-0.52142-2.1659-0.88592-2.9308-1.606 0.18679-0.525 0.55289-1.0392 1.0757-0.42363 5.4043 2.8412 11.272 4.9502 17.357 5.6669 0.22594-1.8852 0.23206-3.9803 0.45581-5.9443 0.10537-2.4967 0.67346-4.9876 0.60175-7.4831-1.7946-0.79748-3.8379-1.1429-5.7314-1.736-7.3726-2.0188-14.863-4.1149-22.578-3.9708-0.23697-2e-3 -0.47394 6e-4 -0.71091 5.9e-4z"/></g><path d="m102.55 142.46c-10.262 4.9916-9.8871 13.718-8.5662 26.128-3.3721-5.8498-3.8991-13.08-2.628-17.398 2.0783-6.9723 6.2795-8.8741 11.2-8.8887" fill="#fff" fill-opacity=".20833"/><path d="m106.59 174.8c17.603 16.266 34.964-38.135 8.7431-31.951-4.8436 1.407-3.8558 1.468-9.0967-0.0643-25.295-5.4898-16.585 40.315 4.46 34.587" fill="none" stroke="#000" stroke-linecap="round" stroke-width=".26458px"/><path d="m127.83 148.37c-1.0729 8.8178-4.4629 24.067-14.653 29.3 4.3001 0.60268 9.1481-3.4835 12.5-10.647 2.6664-5.3936 4.1842-12.46 2.1525-18.653z" fill-opacity=".15152"/><g fill="#fff"><path d="m94.378 156.85c-0.10656 4.2548 1.4793 9.1865 5.9655 14.006 2.0462 2.1321 3.8644 0.89934 1.9175-1.2802-3.8929-4.3395-5.2132-9.0372-5.5556-14-0.17152-3.1245-2.1846-2.4017-2.3275 1.2733z" fill-opacity=".39394"/><ellipse transform="rotate(22.992)" cx="148.05" cy="101.27" rx="1.0583" ry="2.0505" fill-opacity=".39394" style="paint-order:normal"/><path d="m105.58 147.62c6.6499 6.3701 19.594-2.9476 12.793-5.1521-1.4086-0.45664-4.5823 1.2595-7.8172 1.4137-0.25567 3.7186 0.48598 5.1649-5.6351 2.1759 0.10755 0.46202-0.0517 0.7843 0.65956 1.5625z" fill-opacity=".10606"/><ellipse transform="rotate(10.257)" cx="148.62" cy="132.62" rx="1.8521" ry="4.8286" fill-opacity=".10606" style="paint-order:normal"/></g><path d="m109.55 139.05-0.0878 0.65408" display="none" fill="none" stroke="#000" stroke-width=".26458px"/><path d="m104.92 146.06c3.6912 1.9767 7.5833 2.5472 11.958-0.25715" fill="none" stroke="#000" stroke-linecap="round" stroke-width=".26458"/><path transform="scale(.26458)" d="m416.29 557.71c-0.39594-0.0312-0.41985-0.0476-0.41985-0.28747 0-0.41225 0.33895-5.0038 0.53185-7.2048 0.72944-8.3226 2.097-14.444 4.3939-19.666 0.26725-0.60767 0.49135-1.1801 0.49801-1.272 0.0106-0.1462-0.28144-0.24322-2.3302-0.77424-1.2883-0.3339-2.8391-0.70909-3.4463-0.83376-0.60721-0.12466-1.1178-0.24048-1.1347-0.25737-0.0169-0.0169-3e-3 -0.29198 0.0315-0.61131 0.0573-0.53456 0.0771-0.57704 0.25085-0.53576 1.2648 0.30063 6.7126 1.5444 6.7646 1.5444 0.0381 0 0.14119-0.84522 0.22905-1.8783 0.0879-1.033 0.1638-1.8849 0.16875-1.8929 5e-3 -8e-3 0.21732-0.0968 0.47193-0.19715l0.46293-0.18245 0.31498 0.27656c0.62289 0.5469 0.62349 0.51642-0.0501 2.5484-3.6296 10.949-5.0463 17.366-5.4041 24.478-0.0815 1.6195-0.0808 2.5641 3e-3 4.252 0.0592 1.1935 0.13053 2.2576 0.15854 2.3647 0.0488 0.18677 0.0279 0.19407-0.51182 0.17878-0.3095-9e-3 -0.75167-0.0308-0.98258-0.049z" fill="#502d16" stroke-width=".088388"/><path transform="scale(.26458)" d="m396.69 532.18c-3.5769-0.50244-6.9312-1.8774-11.358-4.6558-1.7753-1.1142-2.714-1.6096-3.7177-1.9616-0.33735-0.11832-0.5537-0.23381-0.48078-0.25663 1.6947-0.53042 2.8704-1.1802 4.405-2.4345 1.8049-1.4752 2.1035-1.6914 2.9423-2.13 3.8233-1.9994 8.9668-1.9796 15.236 0.0585 3.2936 1.0708 6.9718 2.8851 9.1304 4.5036 0.45977 0.34475 0.63267 0.52662 0.60188 0.63307-0.0238 0.0821-0.0687 0.38801-0.0999 0.67969-0.0847 0.79211-0.0958 0.81154-0.50326 0.87669-0.63242 0.10113-1.6341 0.5521-3.7374 1.6826-3.439 1.8484-5.0293 2.47-7.513 2.9367-1.0256 0.19269-3.7484 0.23029-4.9056 0.0678zm10.781-6.2672c0.11843-0.2168 0.19362-0.41589 0.1671-0.44242-0.0265-0.0265-0.36291-0.22803-0.74751-0.44777-1.7282-0.98744-2.8967-1.0966-5.7705-0.5389-4.2711 0.82883-5.5184 0.79172-10.518-0.31288-1.2555-0.27739-1.6393-0.33368-1.6921-0.24817-0.071 0.11485-0.20025 0.80436-0.15627 0.83352 0.0727 0.0482 2.9957 0.68397 3.8699 0.84169 3.3792 0.6097 5.0003 0.58389 8.5842-0.13667 2.713-0.54547 3.6845-0.46249 5.2088 0.44492 0.36215 0.21559 0.69906 0.39397 0.74869 0.39641 0.0496 2e-3 0.18713-0.17294 0.30556-0.38973z" fill="#008000" stroke-width=".088388"/><g fill="#502d16" stroke-width=".0625"><path transform="scale(.26458)" d="m422.74 523.62c-0.34544 0.10276-0.73544 0.22087-0.99267 0.4801-0.0901 1.2014-0.21363 2.4119-0.37793 3.6119-2.2319-0.43643-4.4602-1.0609-6.711-1.4687-0.35087-0.0661-0.27381 0.41514-0.32677 0.63005-0.012 0.23297-0.14283 0.65144 0.22919 0.64795 2.2055 0.52656 4.4428 0.97825 6.591 1.7029 0.16377 0.0866-0.0685 0.32406-0.0785 0.45801-1.1997 2.7677-2.2252 5.616-2.9047 8.5586-1.4595 5.9997-1.8955 12.179-2.3235 18.32 0.0296 0.36158-0.1511 0.79668 0.0638 1.1173 0.50928 0.19915 1.0943 0.1 1.6329 0.13208 0.21193 0.0487 0.39941-0.12476 0.28588-0.32984-0.20094-2.1999-0.16977-4.4179-0.13092-6.6265 0.29565-6.2845 1.7072-12.462 3.5281-18.473 0.71282-2.4612 1.5799-4.8761 2.2969-7.3359 0.0907-0.28952 0.14638-0.64648-0.13233-0.85718-0.20222-0.18605-0.37186-0.50182-0.64966-0.56775z"/><path transform="scale(.26458)" d="m422.72 523.59c-0.42354 0.0845-1.0067 0.23957-1.0383 0.76416-0.14132 1.082-0.1933 2.1821-0.37683 3.2523-2.1876-0.41334-4.3385-1.0156-6.5314-1.4043-0.26962-0.0853-0.50538 0.11936-0.4718 0.39941-0.012 0.29011-0.10485 0.61481 0.0125 0.88855 1.6401 0.46965 3.3304 0.7918 4.9762 1.2552 0.60543 0.17881 1.2494 0.31041 1.8231 0.55432-0.52178 1.5248-1.2213 2.9881-1.7196 4.524-2.2935 6.5906-2.9243 13.597-3.4487 20.511-0.0495 1.0807-0.21501 2.166-0.15427 3.247 0.21585 0.34965 0.73419 0.25203 1.0839 0.29261 0.31902-0.0336 0.72076 0.0745 0.98658-0.1316 0.0997-0.49764-0.0743-1.0052-0.033-1.5101-0.0212-2.3667-0.0922-4.7476 0.0474-7.105 0.50003-5.8863 1.865-11.665 3.6-17.3 0.68588-2.3436 1.5367-4.6389 2.1593-7.0002 0.13882-0.50683-0.34865-0.87824-0.68222-1.1718-0.0694-0.0434-0.15046-0.0686-0.23267-0.0656z"/><path transform="scale(.26458)" d="m422.71 523.54c-0.44503 0.0719-1.0904 0.25068-1.0836 0.80957-0.16891 1.0539-0.18448 2.132-0.40735 3.1725-2.1886-0.43401-4.3489-1.0392-6.5557-1.3831-0.43749-0.0532-0.44129 0.48986-0.46154 0.78858-0.0526 0.26162-0.0498 0.65173 0.30481 0.67199 2.1654 0.60227 4.3834 1.036 6.5176 1.731-0.93004 2.4783-1.9508 4.9297-2.6294 7.4941-1.6861 6.1476-2.1367 12.539-2.6204 18.869-3.4e-4 0.6545-0.18285 1.3448 8e-3 1.9835 0.2545 0.32384 0.75297 0.20683 1.113 0.25312 0.29821-0.0393 0.6999 0.0908 0.9308-0.13471 0.13711-0.97331 0.0395-1.9716 0.0679-2.954-9e-3 -2.7728-0.0851-5.5547 0.32313-8.2997 0.83264-6.6313 2.7355-13.062 4.8009-19.401 0.22964-0.83757 0.56481-1.6611 0.67307-2.5245-0.0477-0.47903-0.44479-0.90422-0.88269-1.0701-0.0325-6e-3 -0.0656-7e-3 -0.0985-6e-3z"/></g><g fill="#008000" stroke-width=".0625"><path transform="scale(.26458)" d="m394.84 519.2c-2.8905 0.0339-5.8795 0.79107-8.1382 2.669-1.4203 1.1034-2.7943 2.3278-4.4964 2.9842-0.2965 0.16595-0.73909 0.1831-0.93007 0.4858 0.116 0.30893 0.55687 0.33442 0.81775 0.48841 2.2583 0.99944 4.2491 2.5187 6.4628 3.6201 2.7438 1.4825 5.7406 2.6067 8.8679 2.8639 2.3992 0.17031 4.857-0.0681 7.1201-0.91553 2.708-0.95412 5.1038-2.6084 7.7535-3.6758 0.35272-0.15722 0.92652-0.0835 1.0192-0.57288 0.0773-0.44466 0.21798-0.92489 0.12854-1.3713-0.70845-0.73795-1.6347-1.2316-2.491-1.7788-4.0792-2.3495-8.5886-4.0266-13.268-4.6361-0.94377-0.11469-1.8949-0.17391-2.8458-0.16105zm-5.799 4.7545c2.8674 0.47138 5.7251 1.4108 8.6652 1.1173 2.1508-0.15266 4.2449-0.8417 6.4022-0.83415 1.2535 0.0391 2.4333 0.59493 3.4433 1.2981-0.0969 0.24005-0.20442 0.5503-0.4115 0.69348-1.036-0.56451-2.1182-1.2337-3.3473-1.1672-2.1582 0.0984-4.2485 0.80721-6.4033 0.85805-2.8421 0.15145-5.6152-0.55522-8.3702-1.1601-0.34421 2.5e-4 -0.13367-0.38102-0.11619-0.60043 0.0361-0.0569 0.0196-0.24373 0.13782-0.20508z"/><path transform="scale(.26458)" d="m394.8 519.15c-2.173-0.0149-4.3606 0.4679-6.3032 1.4463-2.3474 1.3269-4.1888 3.48-6.7824 4.3741-0.17857 0.0928-0.68456 0.22697-0.46411 0.50244 0.39061 0.31988 0.91803 0.3986 1.3462 0.66419 2.5266 1.2712 4.8433 2.9361 7.4239 4.1144 3.4644 1.6482 7.3805 2.5864 11.218 2.0073 2.0765-0.24477 4.0448-1.007 5.8982-1.9473 1.8543-0.86427 3.6269-1.9626 5.5439-2.6404 0.31934-0.0549 0.67102-0.22737 0.69201-0.596 0.0589-0.41868 0.26886-0.88279 0.11267-1.2963-0.61467-0.75707-1.5241-1.2022-2.3308-1.7225-4.3187-2.5445-9.1441-4.3039-14.141-4.8419-0.73626-0.0567-1.4754-0.0703-2.2136-0.0644zm-5.7308 4.8915c2.7629 0.42014 5.4983 1.3072 8.322 1.1063 2.4622-0.1278 4.8717-1.0057 7.3369-0.77741 0.96693 0.15203 1.9111 0.62209 2.7308 1.173-0.0846 0.21278-0.20661 0.72637-0.5304 0.49438-0.96541-0.51799-1.9808-1.1046-3.1186-1.0364-2.4285 0.0954-4.7787 0.9467-7.2198 0.82763-2.5166 0.0459-4.978-0.57363-7.4182-1.1273-0.21606-0.017-0.35019-0.14253-0.24183-0.36255 0.0394-0.0847 0.0231-0.31328 0.13917-0.2976z"/><path transform="scale(.26458)" d="m394.88 519.09c-2.6222 0.035-5.3452 0.58885-7.4943 2.168-1.8607 1.2755-3.5427 2.8823-5.6936 3.6728-0.2123 0.092-1.3372 0.21687-1.0958 0.52974 0.50327 0.41011 1.792 0.59106 2.3401 0.93568 2.9308 1.5882 5.7294 3.4537 8.8422 4.6827 2.5247 0.9546 5.2266 1.5629 7.9387 1.3817 2.7567-0.0569 5.4119-1.0022 7.8294-2.2749 1.8185-0.8836 3.5895-1.8856 5.4984-2.5653 0.45182-0.18821 5.1975 2.1964 1.7278-1.4127 0.10596-0.34539-1.1829-0.48959-1.4745-0.71655-1.2711-1.137-2.8236-1.8982-4.3232-2.6845-4.3266-2.1596-9.0787-3.6924-13.951-3.7173-0.0481 2.9e-4 -0.0961 5.7e-4 -0.14417 8.5e-4zm-5.5898 5.0719c2.9148 0.46284 5.8542 1.3883 8.8413 0.99046 2.2022-0.21432 4.385-0.89902 6.6033-0.68198 0.94047 0.12535 1.8027 0.58781 2.6002 1.0752 0.0671 0.17713-0.12238 0.43004-0.26135 0.48828-1.0427-0.51906-2.116-1.1763-3.3301-1.0826-2.4429 0.12586-4.8194 0.93424-7.2754 0.78423-2.4452 0.0308-4.8486-0.5191-7.2112-1.0865-0.19112-0.0215-0.35957-0.17044-0.2428-0.36792-2e-3 -0.21874 0.12571-0.12718 0.276-0.11914z"/></g><path d="m100.1 139c1.0217 0.19335 1.8764-0.78345 4.6126-1.1742 1.4271-0.034 2.8758 0.32289 4.2811 0.85549-0.31581-0.17597-2.1811-1.4194-4.4718-1.4372-0.94014 0.036-1.623 0.25691-2.2166 0.71227-0.83631 0.71229-1.5212 0.87956-2.2053 1.0437z" fill="#fff" fill-opacity=".27652"/><path d="m109.87 147.73c0.18182-2.5751 0.28604-5.1207 1.4254-7.6356-0.59167-0.14424-1.3114-0.36794-1.7829-0.40989-1.1836-0.1053-3.0466 2.9133-7.4994 0.0974-0.48134-0.30439-0.95621-0.66786-1.9136-0.78699 0.81799-0.15119 1.2152-0.2342 1.9918-0.90816 2.1412-1.9879 6.4184 0.0169 7.4574 0.96431l1.8443 0.42591 0.0844-0.94021c0.23718-0.0341 0.42284-0.3773 0.77145 0.25715-0.97543 2.8798-1.904 5.8568-1.5429 8.936" fill="none" stroke="#000" stroke-linejoin="round" stroke-width=".26458px" style="paint-order:normal"/><path d="m103 138.68c1.0246 0.27655 1.7389 0.57764 4.0855 0.0984l0.61969 0.39685c-1.0798-0.14353-2.0983 0.3469-2.6478 0.41383-1.1899 0.16527-1.6182-0.4672-2.0662-0.78025" fill="#fff" fill-opacity=".20454"/><path d="m102.88 138.72c0.7546 0.17685 1.509 0.35365 2.1844 0.33485 0.67543-0.0188 1.2721-0.2331 1.7133-0.24906 0.44118-0.016 0.72671 0.16618 1.012 0.34816" fill="none" stroke="#000" stroke-linecap="round" stroke-width=".236"/><path d="m101.83 139.63c2.3918 0.82265 4.6746 1.0048 6.817 0.36249-1.0542 0.39477-1.6399 1.1081-3.391 1.029-1.4681-0.22356-2.5491-0.73234-3.4261-1.3915z" fill-opacity=".18182"/></g></svg>
